# AST/ASF file generated using VICON BodyLanguage
# -----------------------------------------------
:version 1.10
:name VICON
:units
  mass 1.0
  length 0.45
  angle deg
:documentation
   .ast/.asf automatically generated from VICON data using
   VICON BodyBuilder and BodyLanguage model FoxedUp or BRILLIANT.MOD
:root
   order TX TY TZ RX RY RZ
   axis XYZ
   position 0 0 0  
   orientation 0 0 0 
:bonedata
  begin
     id 1 
     name lhipjoint
     direction 0.62366 -0.717238 0.310833 
     length 2.53602 
     axis 0 0 0  XYZ
  end
  begin
     id 2 
     name lfemur
     direction 0.34202 -0.939693 0  
     length 7.40817  
     axis 0 0 20  XYZ
    dof rx ry rz
    limits (-160.0 20.0)
           (-70.0 70.0)
           (-60.0 70.0)
  end
  begin
     id 3 
     name ltibia
     direction 0.34202 -0.939693 0   
     length 7.7045   
     axis 0 0 20   XYZ
    dof rx
    limits (-10.0 170.0)
  end
  begin
     id 4 
     name lfoot
     direction 0.0673888 -0.185149 0.980397   
     length 2.09456   
     axis -90 7.62852e-016 20   XYZ
    dof rx rz
    limits (-45.0 90.0)
           (-70.0 20.0)
  end
  begin
     id 5 
     name ltoes
     direction 1.53575e-011 -4.21994e-011 1   
     length 1.05543   
     axis -90 7.62852e-016 20   XYZ
    dof rx
    limits (-90.0 20.0)
  end
  begin
     id 6 
     name rhipjoint
     direction -0.489018 -0.800347 0.346851   
     length 2.27268  
     axis 0 0 0  XYZ 
  end
  begin
     id 7 
     name rfemur
     direction -0.34202 -0.939693 0   
     length 7.55487   
     axis 0 0 -20   XYZ
    dof rx ry rz
    limits (-160.0 20.0)
           (-70.0 70.0)
           (-70.0 60.0)
  end
  begin
     id 8 
     name rtibia
     direction -0.34202 -0.939693 0   
     length 7.78969   
     axis 0 0 -20   XYZ
    dof rx
    limits (-10.0 170.0)
 end
 begin
     id 9 
     name rfoot
     direction -0.0859318 -0.236096 0.967923   
     length 2.19143  
     axis -90 -7.62852e-016 -20   XYZ
    dof rx rz
    limits (-45.0 90.0)
           (-20.0 70.0)
  end
  begin
     id 10 
     name rtoes
     direction -1.53538e-011 -4.21989e-011 1   
     length 1.09845   
     axis -90 -7.62852e-016 -20   XYZ
    dof rx
    limits (-90.0 20.0)
  end
  begin
     id 11 
     name lowerback
     direction -0.00762546 0.998978 -0.0445553   
     length 1.98161   
     axis 0 0 0   XYZ
    dof rx ry rz
    limits (-20.0 45.0)
           (-30.0 30.0)
           (-30.0 30.0)
  end
  begin
     id 12 
     name upperback
     direction 0.0422361 0.998867 -0.0219156   
     length 1.97558   
     axis 0 0 0   XYZ
    dof rx ry rz
    limits (-20.0 45.0)
           (-30.0 30.0)
           (-30.0 30.0)
  end
  begin
     id 13 
     name thorax
     direction 0.0442465 0.999021 7.47603e-005   
     length 1.97799   
     axis 0 0 0   XYZ
    dof rx ry rz
    limits (-20.0 45.0)
           (-30.0 30.0)
           (-30.0 30.0)
  end
  begin
     id 14 
     name lowerneck
     direction 0.00312169 0.984641 0.174564   
     length 1.78995   
     axis 0 0 0   XYZ
    dof rx ry rz
    limits (-20.0 45.0)
           (-30.0 30.0)
           (-30.0 30.0)
  end
  begin
     id 15 
     name upperneck
     direction -0.0383028 0.985255 -0.166749   
     length 1.83053   
     axis 0 0 0   XYZ
    dof rx ry rz
    limits (-20.0 45.0)
           (-30.0 30.0)
           (-30.0 30.0)
  end
  begin
     id 16
     name head
     direction -0.0129546 0.997059 -0.0755386  
     length 1.84088  
     axis 0 0 0   XYZ
    dof rx ry rz
    limits (-20.0 45.0)
           (-30.0 30.0)
           (-30.0 30.0)
  end
  begin
     id 17 
     name lclavicle
     direction 0.912857 0.370519 -0.171488  
     length 3.51279  
     axis 0 0 0   XYZ
    dof ry rz
    limits (-20.0 10.0)
           (0.0 20.0)
  end
  begin
     id 18 
     name lhumerus
     direction 1 -4.48962e-011 3.64361e-027   
     length 4.95663   
     axis 180 -30 -90   XYZ
    dof rx ry rz
    limits (-60.0 90.0)
           (-90.0 90.0)
           (-90.0 90.0)
  end
  begin
     id 19
     name lradius
     direction 1 -4.48974e-011 5.97202e-027   
     length 3.38177   
     axis 180 -30 -90   XYZ
    dof rx
    limits (-10.0 170.0)
  end
  begin
     id 20
     name lwrist
     direction 1 -4.4896e-011 9.83288e-027   
     length 1.69088   
     axis -9.31221e-015 90 90   XYZ
    dof ry
    limits (-180.0 0.0)
 end
  begin
     id 21 
     name lhand
     direction 1 -4.4902e-011 1.96551e-026   
     length 0.662909   
     axis -1.25475e-014 90 90   XYZ
    dof rx rz
    limits (-90.0 90.0)
           (-45.0 45.0)
  end
  begin
     id 22 
     name lfingers
     direction 1 -4.48971e-011 3.93277e-026   
     length 0.534454   
     axis -2.50945e-014 90 90   XYZ
    dof rx
    limits (0.0 90.0)
  end
  begin
     id 23
     name lthumb
     direction 0.707107 -6.34933e-011 0.707107   
     length 0.767373   
     axis -90 45 -4.80359e-014   XYZ
    dof rx rz
    limits (-45.0 45.0)
           (-45.0 45.0)
  end
  begin
     id 24 
     name rclavicle
     direction -0.900919 0.395364 -0.178976   
     length 3.40627  
     axis 0 0 0   XYZ 
    dof ry rz
    limits (-10.0 20.0)
           (-20.0 0.0)
  end
  begin
     id 25 
     name rhumerus
     direction -1 -4.48969e-011 1.03875e-027  
     length 5.08365   
     axis 180 30 90   XYZ
    dof rx ry rz
    limits (-90.0 60.0)
           (-90.0 90.0)
           (-90.0 90.0)
  end
  begin
     id 26 
     name rradius
     direction -1 -4.48951e-011 5.02733e-027   
     length 3.35984   
     axis 180 30 90   XYZ
    dof rx
    limits (-10.0 170.0)
  end
  begin
     id 27 
     name rwrist
     direction -1 -4.49011e-011 9.82828e-027   
     length 1.67992   
     axis -9.31221e-015 -90 -90   XYZ
    dof ry
    limits (-180.0 0.0)
  end
  begin
     id 28
     name rhand
     direction -1 -4.48894e-011 1.96774e-026   
     length 0.820764   
     axis -1.25475e-014 -90 -90   XYZ
    dof rx rz
    limits (-90.0 90.0)
           (-45.0 45.0)
  end
  begin
     id 29
     name rfingers
     direction -1 -4.49095e-011 3.92833e-026   
     length 0.661721   
     axis -2.50945e-014 -90 -90   XYZ
    dof rx
    limits (0.0 90.0)
  end
  begin
     id 30
     name rthumb
     direction -0.707107 -6.34881e-011 0.707107   
     length 0.950103   
     axis -90 -45 4.80359e-014   XYZ
    dof rx rz
    limits (-45.0 45.0)
           (-45.0 45.0)
  end
:hierarchy
  begin
    root lhipjoint rhipjoint lowerback
    lhipjoint lfemur
    lfemur ltibia
    ltibia lfoot
    lfoot ltoes
    rhipjoint rfemur
    rfemur rtibia
    rtibia rfoot
    rfoot rtoes
    lowerback upperback
    upperback thorax
    thorax lowerneck lclavicle rclavicle
    lowerneck upperneck
    upperneck head
    lclavicle lhumerus
    lhumerus lradius
    lradius lwrist
    lwrist lhand lthumb
    lhand lfingers
    rclavicle rhumerus
    rhumerus rradius
    rradius rwrist
    rwrist rhand rthumb
    rhand rfingers
  end

#!OML:ASF I:\golf\golf\golf 2\Subject 1\2002-09-07\Subject1.ASF
:FULLY-SPECIFIED
:DEGREES
31
root -6.66625 17.6828 -0.654802 -96.5088 86.7616 -110.948
lowerback 4.31465 2.56941 -1.50637
upperback 4.15418 3.50313 4.79018
thorax 1.48061 1.72825 5.6975
lowerneck -15.0013 -2.36783 1.04784
upperneck 39.3489 0.159252 -5.14589
head 16.7492 0.109641 -2.27746
rclavicle -5.1684e-014 -2.38542e-014
rhumerus -5.63011 -5.20355 -101.554
rradius 21.6721
rwrist -41.9604
rhand -13.2541 -5.80944
rfingers 7.12502
rthumb 12.8482 -35.394
lclavicle -5.1684e-014 -2.38542e-014
lhumerus -10.1236 -47.1967 110.774
lradius 25.3025
lwrist 34.8095
lhand -15.6911 72.4799
lfingers 7.12502
lthumb -169.502 77.8023
rfemur -30.4288 -5.00288 13.3138
rtibia 33.1602
rfoot -10.8937 -7.12131
rtoes -13.4351
lfemur -30.6498 7.85053 -10.5029
ltibia 33.3296
lfoot -13.3383 -4.03549
ltoes -17.9339
32
root -6.66633 17.6823 -0.656336 -96.7928 86.801 -111.274
lowerback 4.25751 2.57985 -1.5132
upperback 4.15456 3.51534 4.76425
thorax 1.51265 1.73334 5.67655
lowerneck -14.9871 -2.37561 1.0372
upperneck 39.3072 0.129598 -5.11003
head 16.7214 0.0994157 -2.26321
rclavicle 1.70955e-014 -2.3059e-014
rhumerus -5.57902 -5.38244 -101.54
rradius 21.6089
rwrist -41.6872
rhand -13.1039 -5.83589
rfingers 7.12502
rthumb 12.993 -35.4113
lclavicle 1.70955e-014 -2.3059e-014
lhumerus -10.1143 -47.2532 110.758
lradius 25.2961
lwrist 34.8475
lhand -15.7557 72.4921
lfingers 7.12502
lthumb -169.564 77.7869
rfemur -30.4679 -4.93872 13.2427
rtibia 33.1568
rfoot -11.0623 -7.12231
rtoes -11.7034
lfemur -30.692 7.84145 -10.5636
ltibia 33.3315
lfoot -13.3954 -3.99703
ltoes -18.2561
33
root -6.66621 17.6835 -0.657248 -97.2816 86.8141 -111.759
lowerback 4.25848 2.58732 -1.53421
upperback 4.15358 3.52476 4.76597
thorax 1.50881 1.73766 5.68982
lowerneck -14.9618 -2.38913 1.01514
upperneck 39.2943 0.104552 -5.08201
head 16.7068 0.0899874 -2.25014
rclavicle 2.38542e-014 -7.15625e-015
rhumerus -5.56115 -5.51987 -101.511
rradius 21.5658
rwrist -41.5197
rhand -13.0466 -5.84566
rfingers 7.12502
rthumb 13.0483 -35.4175
lclavicle 2.38542e-014 -7.15625e-015
lhumerus -10.1461 -47.356 110.784
lradius 25.3259
lwrist 34.8779
lhand -15.794 72.5923
lfingers 7.12502
lthumb -169.601 77.6848
rfemur -30.455 -4.9897 13.2237
rtibia 33.1503
rfoot -10.9519 -7.12209
rtoes -13.5922
lfemur -30.6922 7.82406 -10.5952
ltibia 33.3298
lfoot -13.4186 -3.96167
ltoes -18.5189
34
root -6.66585 17.6849 -0.657299 -97.1083 86.796 -111.557
lowerback 4.30101 2.60052 -1.53749
upperback 4.14878 3.54321 4.77853
thorax 1.47717 1.74764 5.70171
lowerneck -14.9696 -2.40223 1.05024
upperneck 39.3314 0.0935249 -5.11677
head 16.7278 0.0876533 -2.27514
rclavicle -1.35174e-014 -3.97569e-015
rhumerus -5.56846 -5.58524 -101.509
rradius 21.5678
rwrist -41.5616
rhand -13.0858 -5.82022
rfingers 7.12502
rthumb 13.0105 -35.3945
lclavicle -1.35174e-014 -3.97569e-015
lhumerus -10.1701 -47.2951 110.812
lradius 25.3258
lwrist 34.769
lhand -15.761 72.7317
lfingers 7.12502
lthumb -169.569 77.547
rfemur -30.4216 -5.05556 13.2612
rtibia 33.1406
rfoot -11.0347 -7.02666
rtoes -13.3316
lfemur -30.6544 7.81146 -10.5521
ltibia 33.3208
lfoot -13.3379 -4.06626
ltoes -17.4986
35
root -6.66585 17.6849 -0.658664 -97.1354 86.7938 -111.566
lowerback 4.33912 2.61568 -1.50449
upperback 4.14445 3.56437 4.75648
thorax 1.45221 1.75961 5.65666
lowerneck -15.0066 -2.42044 1.08108
upperneck 39.3784 0.0517173 -5.09462
head 16.7597 0.0791692 -2.28037
rclavicle -4.96962e-014 -2.14687e-014
rhumerus -5.55187 -5.75292 -101.539
rradius 21.557
rwrist -41.5004
rhand -12.9101 -5.83374
rfingers 7.12502
rthumb 13.1798 -35.3972
lclavicle -4.96962e-014 -2.14687e-014
lhumerus -10.1929 -47.3139 110.813
lradius 25.3287
lwrist 34.7278
lhand -15.6991 72.7485
lfingers 7.12502
lthumb -169.51 77.5332
rfemur -30.3944 -5.08495 13.2665
rtibia 33.1316
rfoot -11.0463 -7.02965
rtoes -13.6306
lfemur -30.6222 7.76817 -10.5324
ltibia 33.3109
lfoot -13.2887 -4.11349
ltoes -16.8569
36
root -6.66593 17.6856 -0.659567 -97.471 86.8103 -111.89
lowerback 4.35372 2.61764 -1.52599
upperback 4.14892 3.56649 4.75523
thorax 1.44734 1.76028 5.66688
lowerneck -15.0336 -2.42667 1.05429
upperneck 39.4114 0.0351661 -5.04584
head 16.7838 0.0756687 -2.25815
rclavicle -1.59028e-014 1.11319e-014
rhumerus -5.54334 -5.80777 -101.533
rradius 21.5494
rwrist -41.4386
rhand -12.7497 -5.86782
rfingers 7.12502
rthumb 13.3345 -35.4212
lclavicle -1.59028e-014 1.11319e-014
lhumerus -10.1791 -47.3212 110.814
lradius 25.289
lwrist 34.6958
lhand -15.6434 72.596
lfingers 7.12502
lthumb -169.456 77.6884
rfemur -30.3724 -5.06574 13.2339
rtibia 33.1252
rfoot -11.0166 -7.10701
rtoes -14.3189
lfemur -30.6085 7.7467 -10.5591
ltibia 33.309
lfoot -13.3214 -4.07487
ltoes -17.195
37
root -6.66618 17.6852 -0.659411 -97.7046 86.8087 -112.115
lowerback 4.35198 2.61151 -1.53789
upperback 4.16592 3.55833 4.7678
thorax 1.46545 1.75554 5.68801
lowerneck -15.0344 -2.41582 1.05673
upperneck 39.3781 0.0570287 -5.07385
head 16.7672 0.0798642 -2.2663
rclavicle -2.74323e-014 0
rhumerus -5.51124 -5.8135 -101.533
rradius 21.5328
rwrist -41.4691
rhand -12.8718 -5.82874
rfingers 7.12502
rthumb 13.2168 -35.3898
lclavicle -2.74323e-014 0
lhumerus -10.1127 -47.2358 110.795
lradius 25.2132
lwrist 34.5102
lhand -15.595 72.4793
lfingers 7.12502
lthumb -169.409 77.8076
rfemur -30.3685 -5.08283 13.2387
rtibia 33.1251
rfoot -10.9275 -7.16709
rtoes -16.0696
lfemur -30.6095 7.758 -10.5648
ltibia 33.3101
lfoot -13.3205 -4.10682
ltoes -17.2338
38
root -6.66637 17.683 -0.659871 -97.6051 86.7756 -112.025
lowerback 4.35033 2.6224 -1.46729
upperback 4.16217 3.57495 4.76196
thorax 1.46494 1.7656 5.64095
lowerneck -15.0219 -2.41704 1.09245
upperneck 39.352 0.0584848 -5.11804
head 16.7496 0.0794208 -2.29115
rclavicle -3.02153e-014 -3.02153e-014
rhumerus -5.50402 -5.81942 -101.55
rradius 21.5596
rwrist -41.5851
rhand -13.0854 -5.80931
rfingers 7.12502
rthumb 13.0109 -35.3836
lclavicle -3.02153e-014 -3.02153e-014
lhumerus -10.1334 -47.3676 110.803
lradius 25.2319
lwrist 34.5202
lhand -15.6083 72.5303
lfingers 7.12502
lthumb -169.422 77.7559
rfemur -30.394 -5.19245 13.3092
rtibia 33.1259
rfoot -10.714 -7.19358
rtoes -19.6684
lfemur -30.6229 7.7998 -10.5468
ltibia 33.311
lfoot -13.2979 -4.11126
ltoes -17.4527
